<svg xmlns="http://www.w3.org/2000/svg" xmlns:xlink="http://www.w3.org/1999/xlink" width="1792" zoomAndPan="magnify" viewBox="0 0 1344 269.999989" height="360" preserveAspectRatio="xMidYMid meet" version="1.0"><defs><clipPath id="338be0b18a"><path d="M 1183.023438 163 L 1343 163 L 1343 270 L 1183.023438 270 Z M 1183.023438 163 " clip-rule="nonzero"/></clipPath><clipPath id="7c516d3964"><path d="M 1183.023438 163 L 1343 163 L 1343 270 L 1183.023438 270 Z M 1183.023438 163 " clip-rule="nonzero"/></clipPath><clipPath id="2c60468bc9"><path d="M 160.988281 162 L 282.144531 162 L 282.144531 270 L 160.988281 270 Z M 160.988281 162 " clip-rule="nonzero"/></clipPath><clipPath id="b4dc173960"><path d="M 1061.859375 0 L 1183.015625 0 L 1183.015625 101.742188 L 1061.859375 101.742188 Z M 1061.859375 0 " clip-rule="nonzero"/></clipPath></defs><path fill="#0097b2" d="M 153.21875 99.410156 C 150.382812 102.441406 147.070312 104.9375 143.117188 106.332031 C 138.910156 107.808594 134.167969 108.011719 129.777344 107.339844 C 129.765625 107.339844 129.746094 107.335938 129.730469 107.335938 C 129.539062 107.320312 129.367188 107.257812 129.175781 107.234375 C 129.066406 107.226562 128.960938 107.214844 128.855469 107.191406 C 128.757812 107.167969 128.65625 107.117188 128.558594 107.105469 C 128.527344 107.101562 128.503906 107.09375 128.476562 107.085938 C 128.46875 107.085938 128.464844 107.085938 128.457031 107.082031 C 121.046875 105.058594 114.957031 99.605469 111.808594 92.601562 C 110.742188 90.222656 110.03125 87.769531 109.707031 85.304688 C 109.042969 80.320312 109.941406 75.277344 112.59375 70.6875 C 112.59375 70.628906 112.609375 70.578125 112.644531 70.519531 C 113.722656 68.792969 114.949219 67.183594 116.324219 65.707031 C 112.242188 61.46875 108.117188 57.273438 104.007812 53.0625 C 101.898438 50.902344 99.765625 48.761719 97.703125 46.554688 C 95.691406 48.152344 93.464844 49.460938 90.992188 50.332031 C 86.785156 51.808594 82.042969 52.011719 77.652344 51.335938 C 77.640625 51.335938 77.621094 51.332031 77.605469 51.332031 C 77.417969 51.316406 77.238281 51.257812 77.046875 51.238281 C 76.941406 51.222656 76.835938 51.210938 76.734375 51.1875 C 76.632812 51.164062 76.53125 51.113281 76.433594 51.105469 C 76.398438 51.101562 76.363281 51.089844 76.332031 51.078125 C 76.328125 51.074219 76.316406 51.074219 76.308594 51.070312 C 72.574219 50.050781 69.175781 48.15625 66.320312 45.625 C 64.097656 48.011719 61.792969 50.3125 59.519531 52.644531 C 54.894531 57.378906 50.25 62.09375 45.679688 66.878906 C 47.683594 69.421875 49.195312 72.363281 50.066406 75.566406 C 50.953125 78.832031 51.269531 82.117188 50.984375 85.300781 C 50.515625 90.464844 48.453125 95.351562 44.664062 99.410156 C 41.828125 102.441406 38.511719 104.9375 34.558594 106.332031 C 30.355469 107.808594 25.609375 108.011719 21.21875 107.339844 C 21.203125 107.339844 21.1875 107.335938 21.171875 107.335938 C 20.984375 107.320312 20.808594 107.257812 20.617188 107.234375 C 20.511719 107.226562 20.40625 107.214844 20.296875 107.191406 C 20.203125 107.167969 20.101562 107.117188 20 107.101562 C 19.980469 107.101562 19.957031 107.097656 19.9375 107.089844 C 19.929688 107.085938 19.925781 107.085938 19.921875 107.082031 C 19.914062 107.082031 19.90625 107.082031 19.898438 107.082031 C 12.492188 105.058594 6.398438 99.605469 3.253906 92.601562 C 0.0234375 85.417969 0.0742188 77.554688 4.03125 70.683594 C 4.03125 70.628906 4.050781 70.574219 4.085938 70.519531 C 5.945312 67.550781 8.230469 64.921875 10.976562 62.738281 C 16.96875 57.964844 25.523438 56.15625 32.945312 58.277344 C 33.257812 58.367188 33.566406 58.460938 33.875 58.566406 C 36.394531 59.40625 38.742188 60.640625 40.839844 62.191406 C 45.832031 56.953125 50.90625 51.792969 55.960938 46.617188 C 57.933594 44.59375 59.929688 42.589844 61.867188 40.53125 C 61.035156 39.292969 60.304688 37.976562 59.683594 36.601562 C 56.800781 30.179688 56.53125 23.222656 59.335938 16.910156 C 59.664062 16.15625 60.042969 15.414062 60.464844 14.683594 L 60.464844 14.679688 C 60.464844 14.628906 60.480469 14.574219 60.515625 14.515625 C 62.378906 11.550781 64.664062 8.917969 67.40625 6.734375 C 73.65625 1.765625 82.679688 0.0078125 90.304688 2.5625 C 97.246094 4.890625 102.898438 10.160156 105.605469 16.914062 C 105.953125 17.773438 106.253906 18.660156 106.5 19.566406 C 108.640625 27.441406 107.457031 35.460938 102.472656 41.800781 C 104.429688 43.867188 106.441406 45.886719 108.433594 47.925781 C 112.796875 52.386719 117.167969 56.835938 121.484375 61.34375 C 126.878906 57.902344 133.773438 56.574219 140.046875 57.917969 C 140.851562 58.089844 141.648438 58.304688 142.429688 58.566406 C 150.253906 61.1875 156.445312 67.554688 158.621094 75.566406 C 160.949219 84.125 159.351562 92.851562 153.21875 99.410156 Z M 153.21875 99.410156 " fill-opacity="1" fill-rule="nonzero"/><path fill="#004aad" d="M 140.046875 57.917969 L 140.046875 58.679688 C 137.75 58.175781 135.355469 58.007812 132.914062 58.210938 C 128.890625 58.546875 125.21875 59.84375 121.996094 61.875 C 121.90625 61.929688 121.816406 61.984375 121.726562 62.042969 C 122.558594 62.929688 121.140625 64.921875 120.449219 65.382812 C 119.480469 66.027344 118.191406 66.429688 117.222656 65.945312 L 117.222656 65.867188 C 117.15625 65.796875 117.148438 65.847656 117.148438 65.8125 C 117.019531 65.9375 116.902344 66.0625 116.785156 66.1875 C 115.472656 67.578125 114.289062 69.117188 113.242188 70.777344 C 113.242188 70.824219 113.226562 70.875 113.199219 70.921875 C 110.613281 75.359375 109.664062 80.390625 110.3125 85.304688 L 109.707031 85.304688 C 109.042969 80.320312 109.941406 75.277344 112.59375 70.6875 C 112.59375 70.632812 112.609375 70.578125 112.644531 70.519531 C 113.722656 68.792969 114.949219 67.183594 116.324219 65.707031 C 112.242188 61.46875 108.117188 57.273438 104.007812 53.0625 C 101.898438 50.902344 99.765625 48.761719 97.703125 46.554688 C 95.691406 48.152344 93.464844 49.460938 90.992188 50.332031 C 86.785156 51.808594 82.042969 52.011719 77.652344 51.335938 C 77.640625 51.335938 77.621094 51.332031 77.605469 51.332031 C 77.417969 51.316406 77.238281 51.257812 77.046875 51.238281 C 76.941406 51.222656 76.835938 51.210938 76.734375 51.1875 C 76.632812 51.167969 76.53125 51.113281 76.433594 51.105469 C 76.398438 51.101562 76.363281 51.089844 76.332031 51.078125 C 76.328125 51.074219 76.316406 51.074219 76.308594 51.070312 C 72.574219 50.050781 69.175781 48.15625 66.320312 45.625 C 64.097656 48.011719 61.792969 50.3125 59.519531 52.644531 C 54.894531 57.378906 50.25 62.09375 45.679688 66.878906 C 47.683594 69.421875 49.195312 72.363281 50.066406 75.566406 C 50.953125 78.832031 51.269531 82.117188 50.984375 85.304688 L 50.378906 85.304688 C 50.914062 80.023438 49.753906 74.550781 47 69.945312 C 46.457031 69.039062 45.863281 68.171875 45.226562 67.355469 C 45.089844 67.1875 44.953125 67.019531 44.820312 66.851562 C 43.644531 65.433594 42.332031 64.167969 40.898438 63.066406 C 40.730469 62.933594 40.554688 62.804688 40.378906 62.679688 C 38.136719 61.042969 35.625 59.8125 32.949219 59.050781 L 32.949219 58.277344 C 33.257812 58.367188 33.566406 58.460938 33.875 58.566406 C 36.394531 59.40625 38.742188 60.640625 40.839844 62.191406 C 45.832031 56.953125 50.90625 51.792969 55.960938 46.617188 C 57.933594 44.59375 59.929688 42.589844 61.867188 40.53125 C 61.035156 39.292969 60.304688 37.976562 59.683594 36.601562 C 56.800781 30.179688 56.53125 23.222656 59.335938 16.910156 L 60.042969 16.910156 C 57.15625 23.210938 57.328125 30.425781 60.460938 36.738281 C 61.027344 37.878906 61.65625 38.972656 62.355469 40.011719 C 62.421875 40.121094 62.492188 40.222656 62.566406 40.328125 C 64.382812 38.191406 68.550781 43.449219 66.558594 44.933594 C 66.566406 44.941406 66.578125 44.953125 66.585938 44.960938 C 66.648438 45.019531 66.710938 45.078125 66.773438 45.132812 C 69.523438 47.59375 72.792969 49.441406 76.503906 50.457031 C 76.53125 50.460938 76.554688 50.472656 76.574219 50.484375 C 76.734375 50.515625 76.886719 50.574219 77.050781 50.589844 C 77.160156 50.601562 77.277344 50.601562 77.382812 50.625 C 77.453125 50.640625 77.523438 50.675781 77.59375 50.683594 C 77.613281 50.679688 77.636719 50.683594 77.660156 50.6875 C 82.628906 51.476562 88.1875 51.136719 92.753906 48.886719 C 94.34375 48.105469 95.855469 47.160156 97.261719 46.078125 C 97.429688 45.953125 97.601562 45.816406 97.769531 45.679688 C 99.183594 44.542969 100.480469 43.253906 101.628906 41.84375 C 101.773438 41.675781 101.90625 41.507812 102.035156 41.335938 C 102.324219 40.972656 102.597656 40.597656 102.863281 40.214844 C 107.539062 33.460938 108.132812 24.433594 104.945312 16.910156 L 105.605469 16.910156 C 105.953125 17.773438 106.253906 18.65625 106.5 19.5625 C 108.640625 27.441406 107.457031 35.460938 102.472656 41.800781 C 104.429688 43.867188 106.445312 45.886719 108.433594 47.921875 C 112.796875 52.386719 117.171875 56.835938 121.488281 61.34375 C 126.878906 57.902344 133.773438 56.574219 140.046875 57.917969 Z M 140.046875 57.917969 " fill-opacity="1" fill-rule="nonzero"/><path fill="#004aad" d="M 158.621094 75.566406 C 156.445312 67.554688 150.253906 61.1875 142.429688 58.566406 C 141.648438 58.304688 140.851562 58.089844 140.046875 57.917969 C 133.773438 56.574219 126.878906 57.902344 121.484375 61.34375 C 117.167969 56.835938 112.792969 52.386719 108.433594 47.925781 C 106.441406 45.886719 104.429688 43.867188 102.472656 41.800781 C 107.457031 35.460938 108.640625 27.441406 106.5 19.566406 C 106.253906 18.660156 105.953125 17.773438 105.605469 16.914062 C 102.898438 10.160156 97.246094 4.890625 90.304688 2.5625 C 82.679688 0.0078125 73.65625 1.765625 67.40625 6.734375 C 64.664062 8.917969 62.378906 11.550781 60.515625 14.515625 C 60.480469 14.574219 60.464844 14.628906 60.464844 14.679688 L 60.464844 14.683594 C 60.042969 15.417969 59.664062 16.160156 59.335938 16.914062 C 56.53125 23.222656 56.800781 30.179688 59.683594 36.605469 C 60.300781 37.980469 61.035156 39.296875 61.867188 40.535156 C 59.929688 42.59375 57.933594 44.59375 55.960938 46.617188 C 50.90625 51.796875 45.832031 56.953125 40.839844 62.191406 C 38.742188 60.640625 36.390625 59.410156 33.871094 58.566406 C 33.566406 58.464844 33.257812 58.371094 32.945312 58.28125 C 25.523438 56.15625 16.96875 57.96875 10.976562 62.738281 C 8.230469 64.921875 5.945312 67.550781 4.085938 70.519531 C 4.050781 70.578125 4.03125 70.632812 4.03125 70.6875 C 0.0742188 77.558594 0.0234375 85.417969 3.253906 92.605469 C 6.398438 99.605469 12.492188 105.058594 19.898438 107.082031 C 19.90625 107.085938 19.914062 107.085938 19.921875 107.085938 C 19.925781 107.089844 19.929688 107.089844 19.9375 107.089844 C 19.957031 107.097656 19.980469 107.101562 20 107.105469 C 20.101562 107.117188 20.203125 107.167969 20.296875 107.191406 C 20.40625 107.214844 20.511719 107.226562 20.617188 107.238281 C 20.808594 107.257812 20.984375 107.320312 21.171875 107.335938 C 21.1875 107.335938 21.203125 107.339844 21.21875 107.339844 C 25.609375 108.015625 30.351562 107.8125 34.558594 106.332031 C 38.511719 104.941406 41.828125 102.441406 44.664062 99.410156 C 48.453125 95.351562 50.515625 90.464844 50.984375 85.304688 C 51.269531 82.121094 50.953125 78.832031 50.066406 75.566406 C 49.195312 72.363281 47.683594 69.421875 45.679688 66.878906 C 50.25 62.097656 54.894531 57.378906 59.519531 52.644531 C 61.792969 50.316406 64.097656 48.011719 66.320312 45.628906 C 69.175781 48.15625 72.574219 50.050781 76.308594 51.074219 C 76.316406 51.078125 76.324219 51.078125 76.332031 51.078125 C 76.363281 51.09375 76.398438 51.101562 76.433594 51.105469 C 76.53125 51.117188 76.632812 51.167969 76.730469 51.191406 C 76.835938 51.210938 76.941406 51.226562 77.046875 51.238281 C 77.238281 51.257812 77.414062 51.320312 77.605469 51.335938 C 77.621094 51.335938 77.640625 51.339844 77.652344 51.339844 C 82.042969 52.011719 86.785156 51.808594 90.992188 50.332031 C 93.464844 49.460938 95.691406 48.152344 97.703125 46.558594 C 99.765625 48.765625 101.898438 50.902344 104.007812 53.0625 C 108.117188 57.273438 112.238281 61.472656 116.324219 65.710938 C 114.949219 67.183594 113.722656 68.792969 112.644531 70.519531 C 112.609375 70.578125 112.589844 70.632812 112.589844 70.6875 C 109.941406 75.277344 109.042969 80.320312 109.703125 85.304688 C 110.03125 87.773438 110.738281 90.222656 111.808594 92.605469 C 114.957031 99.609375 121.046875 105.058594 128.457031 107.082031 C 128.460938 107.085938 128.46875 107.085938 128.476562 107.085938 C 128.503906 107.09375 128.527344 107.101562 128.558594 107.105469 C 128.65625 107.117188 128.757812 107.167969 128.855469 107.191406 C 128.960938 107.214844 129.066406 107.226562 129.175781 107.238281 C 129.367188 107.257812 129.539062 107.320312 129.730469 107.335938 C 129.746094 107.335938 129.765625 107.339844 129.777344 107.339844 C 134.167969 108.015625 138.910156 107.8125 143.113281 106.335938 C 147.070312 104.941406 150.382812 102.445312 153.21875 99.410156 C 159.351562 92.851562 160.949219 84.125 158.621094 75.566406 Z M 47 69.945312 C 49.753906 74.550781 50.910156 80.023438 50.378906 85.304688 C 49.988281 89.183594 48.683594 92.964844 46.429688 96.214844 C 43.867188 99.917969 40.347656 102.90625 36.320312 104.890625 C 31.757812 107.140625 26.195312 107.476562 21.226562 106.691406 C 21.203125 106.6875 21.183594 106.683594 21.160156 106.6875 C 21.089844 106.679688 21.019531 106.640625 20.949219 106.625 C 20.84375 106.601562 20.726562 106.601562 20.617188 106.589844 C 20.449219 106.578125 20.292969 106.519531 20.128906 106.480469 C 20.109375 106.472656 20.089844 106.464844 20.070312 106.457031 C 12.867188 104.492188 7.316406 99.371094 4.027344 92.738281 C 0.5625 85.75 0.71875 77.660156 4.640625 70.921875 C 4.671875 70.875 4.683594 70.824219 4.6875 70.777344 C 9.109375 63.765625 15.980469 58.910156 24.355469 58.210938 C 27.316406 57.964844 30.21875 58.261719 32.945312 59.050781 C 35.625 59.816406 38.132812 61.042969 40.378906 62.679688 C 40.554688 62.804688 40.726562 62.933594 40.898438 63.066406 C 42.332031 64.167969 43.644531 65.433594 44.816406 66.855469 C 44.953125 67.019531 45.089844 67.1875 45.226562 67.359375 C 45.863281 68.171875 46.457031 69.039062 47 69.945312 Z M 59.496094 51.742188 C 54.746094 56.609375 49.972656 61.460938 45.277344 66.375 C 44.113281 64.976562 42.796875 63.703125 41.355469 62.582031 C 46.179688 57.511719 51.089844 52.523438 55.984375 47.519531 C 58.074219 45.375 60.191406 43.257812 62.242188 41.074219 C 62.335938 40.976562 62.425781 40.878906 62.519531 40.78125 C 62.585938 40.769531 62.652344 40.738281 62.691406 40.691406 C 62.898438 40.425781 63.109375 40.242188 63.441406 40.160156 C 64.132812 39.992188 64.898438 40.628906 65.351562 41.054688 C 66.09375 41.753906 67.542969 43.8125 66.332031 44.699219 C 66.328125 44.707031 66.324219 44.710938 66.316406 44.714844 C 66.3125 44.707031 66.304688 44.703125 66.300781 44.699219 C 66.148438 44.863281 65.992188 45.027344 65.839844 45.191406 C 63.765625 47.414062 61.621094 49.570312 59.496094 51.742188 Z M 97.257812 46.078125 C 95.855469 47.164062 94.34375 48.105469 92.753906 48.886719 C 88.1875 51.136719 82.628906 51.480469 77.660156 50.6875 C 77.636719 50.683594 77.613281 50.683594 77.59375 50.683594 C 77.523438 50.675781 77.453125 50.640625 77.382812 50.625 C 77.277344 50.601562 77.160156 50.601562 77.046875 50.59375 C 76.886719 50.574219 76.734375 50.515625 76.574219 50.484375 C 76.554688 50.472656 76.527344 50.460938 76.503906 50.457031 C 72.800781 49.445312 69.53125 47.601562 66.789062 45.144531 C 68.179688 43.941406 66.925781 41.785156 65.929688 40.722656 C 65.328125 40.078125 64.511719 39.535156 63.609375 39.503906 C 63.25 39.492188 62.894531 39.636719 62.613281 39.847656 C 62.539062 39.898438 62.4375 39.996094 62.390625 40.066406 C 62.378906 40.046875 62.367188 40.03125 62.355469 40.015625 C 61.65625 38.972656 61.023438 37.878906 60.460938 36.738281 C 57.328125 30.425781 57.152344 23.214844 60.042969 16.914062 C 60.347656 16.234375 60.691406 15.570312 61.074219 14.917969 C 61.101562 14.871094 61.117188 14.824219 61.117188 14.773438 C 65.542969 7.761719 72.417969 2.910156 80.789062 2.210938 C 90.042969 1.433594 98.683594 6.007812 103.433594 13.941406 C 104.003906 14.898438 104.511719 15.894531 104.941406 16.914062 C 108.128906 24.433594 107.539062 33.460938 102.863281 40.214844 C 102.597656 40.597656 102.324219 40.972656 102.035156 41.335938 C 101.902344 41.511719 101.769531 41.679688 101.628906 41.847656 C 100.480469 43.257812 99.179688 44.542969 97.769531 45.679688 C 97.601562 45.816406 97.429688 45.953125 97.257812 46.078125 Z M 104.898438 53.050781 C 102.65625 50.757812 100.386719 48.488281 98.203125 46.148438 C 99.222656 45.304688 100.183594 44.382812 101.09375 43.40625 C 101.433594 43.046875 101.757812 42.679688 102.066406 42.304688 C 103.867188 44.203125 105.714844 46.0625 107.542969 47.9375 C 112.015625 52.519531 116.503906 57.085938 120.933594 61.710938 C 121.074219 61.851562 121.210938 61.992188 121.347656 62.136719 C 121.347656 62.140625 121.347656 62.140625 121.351562 62.144531 C 122.132812 62.835938 121.230469 64.082031 120.726562 64.683594 C 119.984375 65.570312 118.617188 66.046875 117.503906 65.707031 C 117.476562 65.59375 117.441406 65.523438 117.457031 65.6875 C 117.453125 65.6875 117.449219 65.683594 117.441406 65.683594 C 117.410156 65.585938 117.34375 65.519531 117.230469 65.476562 C 117.105469 65.425781 116.980469 65.375 116.855469 65.324219 C 116.828125 65.296875 116.800781 65.269531 116.773438 65.242188 C 112.835938 61.152344 108.863281 57.105469 104.898438 53.050781 Z M 144.878906 104.890625 C 140.3125 107.140625 134.75 107.476562 129.78125 106.691406 C 129.761719 106.6875 129.738281 106.683594 129.71875 106.6875 C 129.648438 106.679688 129.578125 106.640625 129.507812 106.625 C 129.402344 106.601562 129.28125 106.601562 129.175781 106.589844 C 129.007812 106.578125 128.855469 106.519531 128.691406 106.484375 C 128.671875 106.476562 128.652344 106.464844 128.628906 106.457031 C 121.425781 104.492188 115.871094 99.371094 112.585938 92.738281 C 111.40625 90.359375 110.644531 87.847656 110.3125 85.304688 C 109.667969 80.390625 110.613281 75.359375 113.199219 70.921875 C 113.226562 70.875 113.242188 70.824219 113.242188 70.777344 C 114.289062 69.117188 115.472656 67.578125 116.785156 66.1875 C 116.828125 66.144531 116.875 66.097656 116.917969 66.050781 C 116.953125 66.148438 117.035156 66.214844 117.136719 66.257812 C 118.597656 66.851562 120.351562 66.136719 121.320312 64.976562 C 121.984375 64.183594 122.722656 62.800781 121.988281 61.878906 C 121.992188 61.878906 121.992188 61.878906 121.996094 61.875 C 125.21875 59.84375 128.890625 58.546875 132.914062 58.210938 C 135.355469 58.007812 137.75 58.175781 140.046875 58.679688 C 146.457031 60.082031 152.0625 64.101562 155.558594 69.945312 C 160.34375 77.9375 160.300781 88.546875 154.988281 96.214844 C 152.421875 99.917969 148.902344 102.90625 144.878906 104.890625 Z M 144.878906 104.890625 " fill-opacity="1" fill-rule="nonzero"/><g clip-path="url(#338be0b18a)"><path fill="#0097b2" d="M 1336.242188 261.410156 C 1333.40625 264.441406 1330.09375 266.9375 1326.140625 268.332031 C 1321.933594 269.808594 1317.191406 270.011719 1312.800781 269.339844 C 1312.789062 269.339844 1312.773438 269.335938 1312.753906 269.335938 C 1312.566406 269.320312 1312.390625 269.257812 1312.199219 269.234375 C 1312.089844 269.226562 1311.984375 269.214844 1311.882812 269.191406 C 1311.78125 269.167969 1311.683594 269.117188 1311.582031 269.105469 C 1311.550781 269.101562 1311.527344 269.09375 1311.5 269.085938 C 1311.496094 269.085938 1311.488281 269.085938 1311.480469 269.082031 C 1304.070312 267.058594 1297.980469 261.605469 1294.832031 254.601562 C 1293.765625 252.222656 1293.054688 249.769531 1292.730469 247.304688 C 1292.066406 242.320312 1292.964844 237.277344 1295.617188 232.6875 C 1295.617188 232.628906 1295.632812 232.574219 1295.667969 232.519531 C 1296.75 230.792969 1297.976562 229.183594 1299.347656 227.707031 C 1295.265625 223.46875 1291.140625 219.273438 1287.03125 215.0625 C 1284.921875 212.902344 1282.789062 210.761719 1280.726562 208.554688 C 1278.714844 210.152344 1276.488281 211.460938 1274.015625 212.332031 C 1269.808594 213.808594 1265.066406 214.011719 1260.675781 213.335938 C 1260.664062 213.335938 1260.648438 213.332031 1260.632812 213.332031 C 1260.441406 213.316406 1260.261719 213.257812 1260.074219 213.238281 C 1259.964844 213.222656 1259.859375 213.210938 1259.757812 213.1875 C 1259.65625 213.164062 1259.558594 213.113281 1259.457031 213.105469 C 1259.421875 213.101562 1259.390625 213.089844 1259.355469 213.078125 C 1259.351562 213.074219 1259.339844 213.074219 1259.335938 213.070312 C 1255.597656 212.050781 1252.199219 210.15625 1249.34375 207.625 C 1247.121094 210.011719 1244.816406 212.3125 1242.542969 214.644531 C 1237.917969 219.378906 1233.273438 224.09375 1228.703125 228.878906 C 1230.707031 231.421875 1232.21875 234.363281 1233.089844 237.566406 C 1233.980469 240.832031 1234.296875 244.117188 1234.007812 247.300781 C 1233.539062 252.464844 1231.480469 257.351562 1227.6875 261.410156 C 1224.851562 264.441406 1221.535156 266.9375 1217.582031 268.332031 C 1213.378906 269.808594 1208.632812 270.011719 1204.242188 269.339844 C 1204.230469 269.339844 1204.214844 269.335938 1204.195312 269.335938 C 1204.011719 269.320312 1203.832031 269.257812 1203.640625 269.234375 C 1203.535156 269.226562 1203.429688 269.214844 1203.324219 269.191406 C 1203.226562 269.167969 1203.125 269.117188 1203.027344 269.101562 C 1203.003906 269.101562 1202.980469 269.097656 1202.960938 269.089844 C 1202.953125 269.085938 1202.953125 269.085938 1202.945312 269.082031 C 1202.9375 269.082031 1202.929688 269.082031 1202.921875 269.082031 C 1195.515625 267.058594 1189.421875 261.605469 1186.277344 254.601562 C 1183.046875 247.417969 1183.097656 239.554688 1187.058594 232.683594 C 1187.058594 232.628906 1187.074219 232.574219 1187.109375 232.519531 C 1188.96875 229.550781 1191.253906 226.921875 1194 224.738281 C 1199.992188 219.964844 1208.546875 218.15625 1215.972656 220.277344 C 1216.28125 220.367188 1216.589844 220.460938 1216.898438 220.566406 C 1219.417969 221.40625 1221.765625 222.640625 1223.867188 224.191406 C 1228.855469 218.953125 1233.929688 213.792969 1238.984375 208.617188 C 1240.960938 206.59375 1242.953125 204.589844 1244.890625 202.53125 C 1244.058594 201.292969 1243.328125 199.976562 1242.707031 198.601562 C 1239.824219 192.179688 1239.554688 185.222656 1242.359375 178.910156 C 1242.6875 178.15625 1243.066406 177.414062 1243.488281 176.683594 L 1243.488281 176.679688 C 1243.488281 176.628906 1243.503906 176.574219 1243.539062 176.515625 C 1245.402344 173.550781 1247.6875 170.917969 1250.429688 168.734375 C 1256.679688 163.765625 1265.707031 162.007812 1273.328125 164.5625 C 1280.269531 166.890625 1285.921875 172.160156 1288.628906 178.914062 C 1288.976562 179.773438 1289.277344 180.660156 1289.523438 181.566406 C 1291.664062 189.441406 1290.480469 197.460938 1285.496094 203.800781 C 1287.453125 205.867188 1289.46875 207.886719 1291.457031 209.925781 C 1295.820312 214.386719 1300.195312 218.835938 1304.511719 223.34375 C 1309.902344 219.902344 1316.796875 218.574219 1323.070312 219.917969 C 1323.875 220.089844 1324.671875 220.304688 1325.453125 220.566406 C 1333.277344 223.1875 1339.46875 229.554688 1341.648438 237.566406 C 1343.972656 246.125 1342.375 254.851562 1336.242188 261.410156 Z M 1336.242188 261.410156 " fill-opacity="1" fill-rule="nonzero"/></g><path fill="#004aad" d="M 1323.070312 219.917969 L 1323.070312 220.679688 C 1320.773438 220.175781 1318.378906 220.007812 1315.9375 220.210938 C 1311.917969 220.546875 1308.242188 221.84375 1305.019531 223.875 C 1304.929688 223.929688 1304.839844 223.984375 1304.75 224.042969 C 1305.585938 224.929688 1304.164062 226.921875 1303.472656 227.382812 C 1302.507812 228.027344 1301.214844 228.429688 1300.25 227.945312 L 1300.25 227.867188 C 1300.179688 227.796875 1300.171875 227.847656 1300.171875 227.8125 C 1300.046875 227.9375 1299.925781 228.0625 1299.808594 228.1875 C 1298.496094 229.578125 1297.3125 231.117188 1296.269531 232.777344 C 1296.265625 232.824219 1296.253906 232.875 1296.222656 232.921875 C 1293.636719 237.359375 1292.691406 242.390625 1293.335938 247.304688 L 1292.730469 247.304688 C 1292.066406 242.320312 1292.964844 237.277344 1295.617188 232.6875 C 1295.617188 232.632812 1295.632812 232.578125 1295.667969 232.519531 C 1296.75 230.792969 1297.976562 229.183594 1299.347656 227.707031 C 1295.265625 223.46875 1291.140625 219.273438 1287.03125 215.0625 C 1284.921875 212.902344 1282.789062 210.761719 1280.726562 208.554688 C 1278.714844 210.152344 1276.488281 211.460938 1274.015625 212.332031 C 1269.808594 213.808594 1265.066406 214.011719 1260.675781 213.335938 C 1260.664062 213.335938 1260.648438 213.332031 1260.632812 213.332031 C 1260.441406 213.316406 1260.261719 213.257812 1260.074219 213.238281 C 1259.964844 213.222656 1259.859375 213.210938 1259.757812 213.1875 C 1259.65625 213.167969 1259.558594 213.113281 1259.457031 213.105469 C 1259.421875 213.101562 1259.390625 213.089844 1259.355469 213.078125 C 1259.351562 213.074219 1259.339844 213.074219 1259.335938 213.070312 C 1255.597656 212.050781 1252.199219 210.15625 1249.34375 207.625 C 1247.121094 210.011719 1244.816406 212.3125 1242.542969 214.644531 C 1237.917969 219.378906 1233.273438 224.09375 1228.703125 228.878906 C 1230.707031 231.421875 1232.21875 234.363281 1233.089844 237.566406 C 1233.980469 240.832031 1234.296875 244.117188 1234.007812 247.304688 L 1233.40625 247.304688 C 1233.9375 242.023438 1232.777344 236.550781 1230.023438 231.945312 C 1229.480469 231.039062 1228.886719 230.171875 1228.25 229.355469 C 1228.113281 229.1875 1227.980469 229.019531 1227.84375 228.851562 C 1226.667969 227.433594 1225.355469 226.167969 1223.925781 225.066406 C 1223.753906 224.933594 1223.578125 224.804688 1223.40625 224.679688 C 1221.160156 223.042969 1218.648438 221.8125 1215.972656 221.050781 L 1215.972656 220.277344 C 1216.28125 220.367188 1216.589844 220.460938 1216.898438 220.566406 C 1219.417969 221.40625 1221.765625 222.640625 1223.867188 224.191406 C 1228.855469 218.953125 1233.929688 213.792969 1238.984375 208.617188 C 1240.960938 206.59375 1242.953125 204.589844 1244.890625 202.53125 C 1244.058594 201.292969 1243.328125 199.976562 1242.707031 198.601562 C 1239.824219 192.179688 1239.554688 185.222656 1242.359375 178.910156 L 1243.066406 178.910156 C 1240.179688 185.210938 1240.351562 192.425781 1243.484375 198.738281 C 1244.050781 199.878906 1244.683594 200.972656 1245.378906 202.011719 C 1245.445312 202.121094 1245.519531 202.222656 1245.59375 202.328125 C 1247.40625 200.191406 1251.574219 205.449219 1249.582031 206.933594 C 1249.59375 206.941406 1249.601562 206.953125 1249.613281 206.960938 C 1249.671875 207.019531 1249.734375 207.078125 1249.796875 207.132812 C 1252.546875 209.59375 1255.816406 211.441406 1259.527344 212.457031 C 1259.554688 212.460938 1259.578125 212.472656 1259.597656 212.484375 C 1259.757812 212.515625 1259.910156 212.574219 1260.074219 212.589844 C 1260.183594 212.601562 1260.300781 212.601562 1260.410156 212.625 C 1260.476562 212.640625 1260.546875 212.675781 1260.617188 212.683594 C 1260.636719 212.679688 1260.660156 212.683594 1260.683594 212.6875 C 1265.652344 213.476562 1271.210938 213.136719 1275.777344 210.886719 C 1277.367188 210.105469 1278.878906 209.160156 1280.285156 208.078125 C 1280.453125 207.953125 1280.625 207.816406 1280.792969 207.679688 C 1282.207031 206.542969 1283.507812 205.253906 1284.65625 203.84375 C 1284.796875 203.675781 1284.929688 203.507812 1285.0625 203.335938 C 1285.347656 202.972656 1285.621094 202.597656 1285.886719 202.214844 C 1290.566406 195.460938 1291.15625 186.433594 1287.96875 178.910156 L 1288.628906 178.910156 C 1288.976562 179.773438 1289.277344 180.65625 1289.523438 181.5625 C 1291.664062 189.441406 1290.480469 197.460938 1285.496094 203.800781 C 1287.453125 205.867188 1289.46875 207.886719 1291.457031 209.921875 C 1295.820312 214.386719 1300.195312 218.835938 1304.511719 223.34375 C 1309.902344 219.902344 1316.796875 218.574219 1323.070312 219.917969 Z M 1323.070312 219.917969 " fill-opacity="1" fill-rule="nonzero"/><g clip-path="url(#7c516d3964)"><path fill="#004aad" d="M 1341.648438 237.566406 C 1339.46875 229.554688 1333.277344 223.1875 1325.453125 220.566406 C 1324.671875 220.304688 1323.875 220.089844 1323.070312 219.917969 C 1316.796875 218.574219 1309.902344 219.902344 1304.511719 223.34375 C 1300.195312 218.835938 1295.820312 214.386719 1291.457031 209.925781 C 1289.46875 207.886719 1287.453125 205.867188 1285.496094 203.800781 C 1290.480469 197.460938 1291.664062 189.441406 1289.523438 181.566406 C 1289.277344 180.660156 1288.976562 179.773438 1288.628906 178.914062 C 1285.921875 172.160156 1280.269531 166.890625 1273.328125 164.5625 C 1265.707031 162.007812 1256.679688 163.765625 1250.429688 168.734375 C 1247.6875 170.917969 1245.402344 173.550781 1243.539062 176.515625 C 1243.503906 176.574219 1243.488281 176.628906 1243.488281 176.679688 L 1243.488281 176.683594 C 1243.066406 177.417969 1242.6875 178.160156 1242.359375 178.914062 C 1239.554688 185.222656 1239.824219 192.179688 1242.707031 198.605469 C 1243.328125 199.980469 1244.058594 201.296875 1244.890625 202.535156 C 1242.953125 204.59375 1240.960938 206.59375 1238.984375 208.617188 C 1233.929688 213.796875 1228.855469 218.953125 1223.863281 224.191406 C 1221.765625 222.640625 1219.417969 221.410156 1216.898438 220.566406 C 1216.589844 220.464844 1216.28125 220.371094 1215.972656 220.28125 C 1208.546875 218.15625 1199.992188 219.96875 1194 224.738281 C 1191.253906 226.921875 1188.96875 229.550781 1187.109375 232.519531 C 1187.074219 232.578125 1187.058594 232.632812 1187.058594 232.6875 C 1183.097656 239.558594 1183.046875 247.417969 1186.277344 254.605469 C 1189.421875 261.605469 1195.515625 267.058594 1202.921875 269.082031 C 1202.929688 269.085938 1202.9375 269.085938 1202.945312 269.085938 C 1202.953125 269.089844 1202.953125 269.089844 1202.960938 269.089844 C 1202.980469 269.097656 1203.003906 269.101562 1203.027344 269.105469 C 1203.125 269.117188 1203.226562 269.167969 1203.324219 269.191406 C 1203.429688 269.214844 1203.535156 269.226562 1203.640625 269.238281 C 1203.832031 269.257812 1204.007812 269.320312 1204.195312 269.335938 C 1204.210938 269.335938 1204.230469 269.339844 1204.242188 269.339844 C 1208.632812 270.015625 1213.378906 269.8125 1217.582031 268.332031 C 1221.535156 266.941406 1224.851562 264.441406 1227.6875 261.410156 C 1231.476562 257.351562 1233.539062 252.464844 1234.007812 247.304688 C 1234.292969 244.121094 1233.980469 240.832031 1233.089844 237.566406 C 1232.21875 234.363281 1230.707031 231.421875 1228.703125 228.878906 C 1233.273438 224.097656 1237.917969 219.378906 1242.542969 214.644531 C 1244.816406 212.316406 1247.121094 210.011719 1249.34375 207.628906 C 1252.199219 210.15625 1255.597656 212.050781 1259.335938 213.074219 C 1259.339844 213.078125 1259.351562 213.078125 1259.355469 213.078125 C 1259.390625 213.09375 1259.421875 213.101562 1259.457031 213.105469 C 1259.554688 213.113281 1259.65625 213.167969 1259.757812 213.191406 C 1259.859375 213.210938 1259.964844 213.226562 1260.074219 213.238281 C 1260.261719 213.257812 1260.441406 213.320312 1260.628906 213.335938 C 1260.648438 213.335938 1260.664062 213.339844 1260.675781 213.339844 C 1265.066406 214.011719 1269.808594 213.808594 1274.015625 212.332031 C 1276.488281 211.460938 1278.714844 210.152344 1280.726562 208.558594 C 1282.789062 210.765625 1284.921875 212.902344 1287.03125 215.0625 C 1291.140625 219.273438 1295.265625 223.472656 1299.347656 227.710938 C 1297.972656 229.183594 1296.75 230.792969 1295.667969 232.519531 C 1295.632812 232.578125 1295.617188 232.632812 1295.617188 232.6875 C 1292.964844 237.277344 1292.066406 242.320312 1292.730469 247.304688 C 1293.054688 249.773438 1293.765625 252.222656 1294.832031 254.605469 C 1297.980469 261.609375 1304.070312 267.058594 1311.480469 269.082031 C 1311.488281 269.085938 1311.496094 269.085938 1311.5 269.085938 C 1311.527344 269.09375 1311.550781 269.101562 1311.582031 269.105469 C 1311.679688 269.117188 1311.78125 269.167969 1311.882812 269.191406 C 1311.984375 269.214844 1312.089844 269.226562 1312.199219 269.238281 C 1312.390625 269.257812 1312.566406 269.320312 1312.753906 269.335938 C 1312.769531 269.335938 1312.789062 269.339844 1312.800781 269.339844 C 1317.191406 270.015625 1321.933594 269.8125 1326.140625 268.335938 C 1330.09375 266.941406 1333.40625 264.445312 1336.242188 261.410156 C 1342.375 254.851562 1343.972656 246.125 1341.648438 237.566406 Z M 1230.023438 231.945312 C 1232.777344 236.550781 1233.9375 242.023438 1233.402344 247.304688 C 1233.011719 251.183594 1231.707031 254.964844 1229.457031 258.214844 C 1226.890625 261.917969 1223.371094 264.90625 1219.34375 266.890625 C 1214.78125 269.140625 1209.21875 269.476562 1204.25 268.691406 C 1204.230469 268.6875 1204.207031 268.683594 1204.183594 268.6875 C 1204.117188 268.679688 1204.042969 268.640625 1203.972656 268.625 C 1203.867188 268.601562 1203.75 268.601562 1203.640625 268.589844 C 1203.472656 268.578125 1203.316406 268.519531 1203.15625 268.480469 C 1203.136719 268.472656 1203.117188 268.464844 1203.09375 268.457031 C 1195.894531 266.492188 1190.339844 261.371094 1187.050781 254.738281 C 1183.585938 247.75 1183.742188 239.660156 1187.667969 232.921875 C 1187.695312 232.875 1187.707031 232.824219 1187.710938 232.777344 C 1192.132812 225.765625 1199.007812 220.910156 1207.378906 220.210938 C 1210.34375 219.964844 1213.242188 220.261719 1215.972656 221.050781 C 1218.648438 221.816406 1221.160156 223.042969 1223.402344 224.679688 C 1223.578125 224.804688 1223.753906 224.933594 1223.921875 225.066406 C 1225.355469 226.167969 1226.667969 227.433594 1227.84375 228.855469 C 1227.976562 229.019531 1228.113281 229.1875 1228.25 229.359375 C 1228.886719 230.171875 1229.480469 231.039062 1230.023438 231.945312 Z M 1242.519531 213.742188 C 1237.769531 218.609375 1232.996094 223.460938 1228.300781 228.375 C 1227.136719 226.976562 1225.824219 225.703125 1224.378906 224.582031 C 1229.203125 219.511719 1234.113281 214.523438 1239.007812 209.519531 C 1241.097656 207.375 1243.21875 205.257812 1245.265625 203.074219 C 1245.359375 202.976562 1245.453125 202.878906 1245.542969 202.78125 C 1245.609375 202.769531 1245.679688 202.738281 1245.714844 202.691406 C 1245.925781 202.425781 1246.132812 202.242188 1246.46875 202.160156 C 1247.15625 201.992188 1247.921875 202.628906 1248.375 203.054688 C 1249.117188 203.753906 1250.566406 205.8125 1249.359375 206.699219 C 1249.351562 206.707031 1249.347656 206.710938 1249.34375 206.714844 C 1249.335938 206.707031 1249.328125 206.703125 1249.324219 206.699219 C 1249.171875 206.863281 1249.015625 207.027344 1248.863281 207.191406 C 1246.792969 209.414062 1244.644531 211.570312 1242.519531 213.742188 Z M 1280.285156 208.078125 C 1278.878906 209.164062 1277.367188 210.105469 1275.777344 210.886719 C 1271.210938 213.136719 1265.652344 213.480469 1260.683594 212.6875 C 1260.660156 212.683594 1260.636719 212.683594 1260.617188 212.683594 C 1260.546875 212.675781 1260.476562 212.640625 1260.410156 212.625 C 1260.300781 212.601562 1260.183594 212.601562 1260.074219 212.59375 C 1259.910156 212.574219 1259.757812 212.515625 1259.597656 212.484375 C 1259.578125 212.472656 1259.554688 212.460938 1259.527344 212.457031 C 1255.824219 211.445312 1252.558594 209.601562 1249.8125 207.144531 C 1251.203125 205.941406 1249.949219 203.785156 1248.953125 202.722656 C 1248.351562 202.078125 1247.539062 201.535156 1246.632812 201.503906 C 1246.273438 201.492188 1245.921875 201.636719 1245.636719 201.847656 C 1245.5625 201.898438 1245.460938 201.996094 1245.414062 202.066406 C 1245.402344 202.046875 1245.390625 202.03125 1245.378906 202.015625 C 1244.683594 200.972656 1244.050781 199.878906 1243.484375 198.738281 C 1240.351562 192.425781 1240.179688 185.214844 1243.066406 178.914062 C 1243.371094 178.234375 1243.71875 177.570312 1244.097656 176.917969 C 1244.128906 176.871094 1244.140625 176.824219 1244.144531 176.773438 C 1248.570312 169.761719 1255.441406 164.910156 1263.8125 164.210938 C 1273.066406 163.433594 1281.710938 168.007812 1286.457031 175.941406 C 1287.027344 176.898438 1287.535156 177.894531 1287.96875 178.914062 C 1291.15625 186.433594 1290.5625 195.460938 1285.886719 202.214844 C 1285.621094 202.597656 1285.347656 202.972656 1285.058594 203.335938 C 1284.929688 203.511719 1284.796875 203.679688 1284.65625 203.847656 C 1283.503906 205.257812 1282.207031 206.542969 1280.792969 207.679688 C 1280.625 207.816406 1280.453125 207.953125 1280.285156 208.078125 Z M 1287.921875 215.050781 C 1285.679688 212.757812 1283.414062 210.488281 1281.230469 208.148438 C 1282.25 207.304688 1283.210938 206.382812 1284.121094 205.40625 C 1284.457031 205.046875 1284.78125 204.679688 1285.089844 204.304688 C 1286.890625 206.203125 1288.738281 208.0625 1290.566406 209.9375 C 1295.039062 214.519531 1299.53125 219.085938 1303.957031 223.710938 C 1304.097656 223.851562 1304.234375 223.992188 1304.371094 224.136719 C 1304.375 224.140625 1304.375 224.140625 1304.375 224.144531 C 1305.15625 224.835938 1304.253906 226.082031 1303.753906 226.683594 C 1303.011719 227.570312 1301.640625 228.046875 1300.527344 227.707031 C 1300.5 227.59375 1300.46875 227.523438 1300.480469 227.6875 C 1300.476562 227.6875 1300.472656 227.683594 1300.46875 227.683594 C 1300.433594 227.585938 1300.367188 227.519531 1300.253906 227.476562 C 1300.128906 227.425781 1300.003906 227.375 1299.878906 227.324219 C 1299.851562 227.296875 1299.824219 227.269531 1299.796875 227.242188 C 1295.863281 223.152344 1291.886719 219.105469 1287.921875 215.050781 Z M 1327.902344 266.890625 C 1323.335938 269.140625 1317.773438 269.476562 1312.808594 268.691406 C 1312.785156 268.6875 1312.761719 268.683594 1312.742188 268.6875 C 1312.671875 268.679688 1312.601562 268.640625 1312.53125 268.625 C 1312.425781 268.601562 1312.308594 268.601562 1312.199219 268.589844 C 1312.035156 268.578125 1311.878906 268.519531 1311.71875 268.484375 C 1311.699219 268.476562 1311.675781 268.464844 1311.652344 268.457031 C 1304.449219 266.492188 1298.898438 261.371094 1295.609375 254.738281 C 1294.429688 252.359375 1293.667969 249.847656 1293.335938 247.304688 C 1292.691406 242.390625 1293.640625 237.359375 1296.222656 232.921875 C 1296.253906 232.875 1296.265625 232.824219 1296.269531 232.777344 C 1297.3125 231.117188 1298.496094 229.578125 1299.808594 228.1875 C 1299.851562 228.144531 1299.898438 228.097656 1299.945312 228.050781 C 1299.976562 228.148438 1300.058594 228.214844 1300.164062 228.257812 C 1301.621094 228.851562 1303.375 228.136719 1304.34375 226.976562 C 1305.007812 226.183594 1305.746094 224.800781 1305.015625 223.878906 C 1305.015625 223.878906 1305.019531 223.878906 1305.019531 223.875 C 1308.242188 221.84375 1311.917969 220.546875 1315.9375 220.210938 C 1318.378906 220.007812 1320.773438 220.175781 1323.070312 220.679688 C 1329.480469 222.082031 1335.085938 226.101562 1338.582031 231.945312 C 1343.367188 239.9375 1343.324219 250.546875 1338.011719 258.214844 C 1335.445312 261.917969 1331.925781 264.90625 1327.902344 266.890625 Z M 1327.902344 266.890625 " fill-opacity="1" fill-rule="nonzero"/></g><g clip-path="url(#2c60468bc9)"><path fill="#a6a6a6" d="M 246.101562 162 L 197.03125 162 C 192.917969 162 189.121094 164.191406 187.066406 167.753906 L 162.53125 210.25 C 160.472656 213.808594 160.472656 218.195312 162.53125 221.753906 L 187.066406 264.253906 C 189.121094 267.8125 192.917969 270.007812 197.03125 270.007812 L 246.101562 270.007812 C 250.210938 270.007812 254.011719 267.8125 256.066406 264.253906 L 280.601562 221.753906 C 282.65625 218.195312 282.65625 213.808594 280.601562 210.25 L 256.066406 167.753906 C 254.011719 164.191406 250.210938 162 246.101562 162 " fill-opacity="1" fill-rule="nonzero"/></g><path fill="#d9d9d9" d="M 203.179688 215.980469 C 203.179688 219.765625 204.054688 222.636719 205.804688 224.589844 C 207.550781 226.542969 209.773438 227.519531 212.460938 227.519531 C 215.152344 227.519531 217.363281 226.550781 219.085938 224.613281 C 220.8125 222.675781 221.675781 219.765625 221.675781 215.890625 C 221.675781 212.058594 220.835938 209.199219 219.15625 207.3125 C 217.476562 205.429688 215.246094 204.488281 212.460938 204.488281 C 209.679688 204.488281 207.4375 205.441406 205.734375 207.347656 C 204.03125 209.257812 203.179688 212.132812 203.179688 215.980469 Z M 196.222656 216.210938 C 196.222656 212.804688 196.734375 209.945312 197.753906 207.632812 C 198.511719 205.929688 199.550781 204.402344 200.863281 203.050781 C 202.179688 201.695312 203.621094 200.695312 205.1875 200.039062 C 207.269531 199.15625 209.671875 198.714844 212.394531 198.714844 C 217.320312 198.714844 221.261719 200.246094 224.21875 203.300781 C 227.175781 206.355469 228.65625 210.605469 228.65625 216.050781 C 228.65625 221.445312 227.1875 225.671875 224.253906 228.71875 C 221.320312 231.765625 217.394531 233.292969 212.484375 233.292969 C 207.511719 233.292969 203.558594 231.773438 200.625 228.742188 C 197.691406 225.707031 196.222656 221.53125 196.222656 216.210938 " fill-opacity="1" fill-rule="nonzero"/><path fill="#d9d9d9" d="M 233.910156 227.765625 L 237.539062 227.324219 C 237.652344 228.25 237.964844 228.957031 238.472656 229.445312 C 238.980469 229.9375 239.59375 230.179688 240.316406 230.179688 C 241.089844 230.179688 241.742188 229.886719 242.269531 229.300781 C 242.800781 228.714844 243.0625 227.921875 243.0625 226.925781 C 243.0625 225.980469 242.808594 225.234375 242.304688 224.683594 C 241.796875 224.128906 241.175781 223.855469 240.449219 223.855469 C 239.96875 223.855469 239.394531 223.949219 238.726562 224.136719 L 239.140625 221.078125 C 240.15625 221.105469 240.929688 220.886719 241.460938 220.417969 C 241.996094 219.953125 242.265625 219.332031 242.265625 218.558594 C 242.265625 217.898438 242.066406 217.375 241.675781 216.980469 C 241.285156 216.589844 240.761719 216.394531 240.113281 216.394531 C 239.472656 216.394531 238.925781 216.617188 238.472656 217.0625 C 238.019531 217.507812 237.742188 218.15625 237.644531 219.011719 L 234.1875 218.421875 C 234.429688 217.242188 234.792969 216.292969 235.277344 215.585938 C 235.761719 214.878906 236.4375 214.324219 237.304688 213.917969 C 238.171875 213.515625 239.144531 213.3125 240.222656 213.3125 C 242.0625 213.3125 243.539062 213.898438 244.652344 215.074219 C 245.566406 216.035156 246.027344 217.121094 246.027344 218.332031 C 246.027344 220.046875 245.085938 221.417969 243.210938 222.441406 C 244.332031 222.679688 245.226562 223.21875 245.898438 224.054688 C 246.574219 224.890625 246.90625 225.902344 246.90625 227.085938 C 246.90625 228.800781 246.28125 230.265625 245.027344 231.476562 C 243.773438 232.6875 242.210938 233.292969 240.339844 233.292969 C 238.570312 233.292969 237.101562 232.78125 235.9375 231.761719 C 234.769531 230.742188 234.09375 229.410156 233.910156 227.765625 " fill-opacity="1" fill-rule="nonzero"/><g clip-path="url(#b4dc173960)"><path fill="#a6a6a6" d="M 1146.972656 -6.257812 L 1097.898438 -6.257812 C 1093.789062 -6.257812 1089.992188 -4.066406 1087.9375 -0.503906 L 1063.398438 41.992188 C 1061.34375 45.550781 1061.34375 49.9375 1063.398438 53.496094 L 1087.9375 95.996094 C 1089.992188 99.554688 1093.789062 101.75 1097.898438 101.75 L 1146.972656 101.75 C 1151.082031 101.75 1154.882812 99.554688 1156.9375 95.996094 L 1181.472656 53.496094 C 1183.527344 49.9375 1183.527344 45.550781 1181.472656 41.992188 L 1156.9375 -0.503906 C 1154.882812 -4.066406 1151.082031 -6.257812 1146.972656 -6.257812 " fill-opacity="1" fill-rule="nonzero"/></g><path fill="#d9d9d9" d="M 1104.050781 47.722656 C 1104.050781 51.507812 1104.925781 54.378906 1106.671875 56.332031 C 1108.421875 58.285156 1110.640625 59.261719 1113.332031 59.261719 C 1116.023438 59.261719 1118.230469 58.292969 1119.957031 56.355469 C 1121.683594 54.417969 1122.546875 51.507812 1122.546875 47.632812 C 1122.546875 43.800781 1121.707031 40.941406 1120.027344 39.054688 C 1118.347656 37.171875 1116.113281 36.226562 1113.332031 36.226562 C 1110.550781 36.226562 1108.308594 37.183594 1106.605469 39.089844 C 1104.902344 41 1104.050781 43.875 1104.050781 47.722656 Z M 1097.09375 47.949219 C 1097.09375 44.546875 1097.605469 41.6875 1098.625 39.375 C 1099.382812 37.671875 1100.421875 36.144531 1101.734375 34.792969 C 1103.050781 33.4375 1104.492188 32.433594 1106.058594 31.78125 C 1108.140625 30.898438 1110.542969 30.457031 1113.265625 30.457031 C 1118.191406 30.457031 1122.132812 31.988281 1125.089844 35.042969 C 1128.046875 38.097656 1129.523438 42.347656 1129.523438 47.789062 C 1129.523438 53.1875 1128.058594 57.410156 1125.125 60.460938 C 1122.1875 63.507812 1118.265625 65.03125 1113.355469 65.03125 C 1108.382812 65.03125 1104.429688 63.515625 1101.496094 60.484375 C 1098.5625 57.449219 1097.09375 53.273438 1097.09375 47.949219 " fill-opacity="1" fill-rule="nonzero"/><path fill="#d9d9d9" d="M 1134.777344 59.507812 L 1138.410156 59.066406 C 1138.523438 59.992188 1138.835938 60.699219 1139.34375 61.1875 C 1139.851562 61.679688 1140.464844 61.921875 1141.183594 61.921875 C 1141.960938 61.921875 1142.609375 61.628906 1143.140625 61.042969 C 1143.671875 60.453125 1143.933594 59.664062 1143.933594 58.664062 C 1143.933594 57.722656 1143.679688 56.976562 1143.175781 56.425781 C 1142.667969 55.871094 1142.046875 55.597656 1141.320312 55.597656 C 1140.839844 55.597656 1140.265625 55.691406 1139.597656 55.875 L 1140.011719 52.820312 C 1141.023438 52.847656 1141.800781 52.628906 1142.332031 52.160156 C 1142.867188 51.691406 1143.132812 51.070312 1143.132812 50.296875 C 1143.132812 49.640625 1142.9375 49.113281 1142.546875 48.722656 C 1142.15625 48.332031 1141.632812 48.136719 1140.984375 48.136719 C 1140.34375 48.136719 1139.796875 48.359375 1139.34375 48.804688 C 1138.890625 49.25 1138.613281 49.898438 1138.515625 50.753906 L 1135.058594 50.164062 C 1135.300781 48.980469 1135.664062 48.035156 1136.148438 47.328125 C 1136.632812 46.621094 1137.308594 46.066406 1138.175781 45.660156 C 1139.042969 45.253906 1140.015625 45.054688 1141.089844 45.054688 C 1142.933594 45.054688 1144.410156 45.640625 1145.523438 46.816406 C 1146.4375 47.777344 1146.898438 48.863281 1146.898438 50.070312 C 1146.898438 51.789062 1145.957031 53.160156 1144.082031 54.179688 C 1145.203125 54.421875 1146.097656 54.960938 1146.769531 55.796875 C 1147.441406 56.632812 1147.777344 57.644531 1147.777344 58.824219 C 1147.777344 60.542969 1147.152344 62.007812 1145.894531 63.21875 C 1144.640625 64.425781 1143.082031 65.03125 1141.210938 65.03125 C 1139.441406 65.03125 1137.972656 64.523438 1136.808594 63.503906 C 1135.640625 62.484375 1134.964844 61.152344 1134.777344 59.507812 " fill-opacity="1" fill-rule="nonzero"/></svg>